<svg version="1.0" xmlns="http://www.w3.org/2000/svg"
 width="512.000000pt" height="512.000000pt" viewBox="0 0 512.000000 512.000000"
 preserveAspectRatio="xMidYMid meet">
<metadata>
Created by potrace 1.14, written by Peter Selinger 2001-2017
</metadata>
<g transform="translate(0.000000,512.000000) scale(0.100000,-0.100000)"
fill="#000000" stroke="none">
<path d="M2680 2615 l0 -1135 690 0 690 0 0 170 0 170 -505 0 -505 0 0 320 0
320 420 0 420 0 0 170 0 170 -420 0 -420 0 0 300 0 300 485 0 485 0 0 175 0
175 -670 0 -670 0 0 -1135z"/>
<path d="M1120 2605 l0 -1135 185 0 185 0 0 480 0 480 455 0 455 0 -2 173 -3
172 -452 3 -453 2 0 305 0 305 485 0 485 0 0 175 0 175 -670 0 -670 0 0 -1135z"/>
</g>
</svg>
